<svg viewBox="0 0 1024 1024" focusable="false"><path d="M903.94,800.26H119.06A56.13,56.13,0,0,1,63,744.2V295.69a56.13,56.13,0,0,1,56.06-56.07H903.94A56.13,56.13,0,0,1,960,295.69V744.2A56.13,56.13,0,0,1,903.94,800.26ZM119.06,295.69h0l0,448.51H903.94V295.69Z"/><rect class="cls-1" x="203.15" y="379.78" width="56.06" height="56.06" rx="14.02"/><rect class="cls-1" x="315.28" y="379.78" width="56.06" height="56.06" rx="14.02"/><rect class="cls-1" x="427.4" y="379.78" width="56.06" height="56.06" rx="14.02"/><rect class="cls-1" x="539.53" y="379.78" width="56.06" height="56.06" rx="14.02"/><rect class="cls-1" x="651.65" y="379.78" width="56.06" height="56.06" rx="14.02"/><rect class="cls-1" x="763.78" y="379.78" width="56.06" height="56.06" rx="14.02"/><rect class="cls-1" x="259.21" y="491.91" width="56.06" height="56.06" rx="14.02"/><rect class="cls-1" x="371.34" y="491.91" width="56.06" height="56.06" rx="14.02"/><rect class="cls-1" x="483.46" y="491.91" width="56.06" height="56.06" rx="14.02"/><rect class="cls-1" x="595.59" y="491.91" width="56.06" height="56.06" rx="14.02"/><rect class="cls-1" x="707.71" y="491.91" width="56.06" height="56.06" rx="14.02"/><rect class="cls-1" x="203.15" y="604.03" width="56.06" height="56.06" rx="14.02"/><rect class="cls-1" x="315.28" y="604.03" width="392.44" height="56.06" rx="14.02"/><rect class="cls-1" x="763.78" y="604.03" width="56.06" height="56.06" rx="14.02"/><path class="cls-1" d="M512,912.38l-60.69-84.1H572.69Z"/></svg>